<svg width="97" height="131" viewBox="0 0 97 131" fill="none" xmlns="http://www.w3.org/2000/svg">
<path d="M84.5087 25.254C84.5087 30.1161 74.2589 42.4636 70.9042 46.0459C81.4105 50.6578 91.685 63.2154 91.685 73.0088C91.685 87.1294 83.2534 89.9839 64.7966 90.1813V120.479H60.799L60.3504 90.1813C57.1862 90.1477 54.1344 90.0364 51.249 89.8048C37.2397 88.6803 33.7507 84.7177 33.7507 73.0088C33.7507 64.3918 42.7798 50.9034 51.249 46.0459C46.7474 42.2219 39.646 31.278 39.646 25.5487C39.219 16.2907 43.5086 13.5452 53.8031 12.9858C57.0867 10.5404 56.6972 5.00088 56.135 0H66.3513C66.3513 0 65.6832 9.41857 70.9042 12.9858C79.3728 13.8298 84.5087 16.5782 84.5087 25.254Z" fill="#A178C5" fill-opacity="0.63"/>
<path d="M63.1726 27.4594C63.1726 32.7461 51.8835 46.1719 48.1886 50.067C59.7602 55.0817 66.1726 68.7358 66.1726 79.3846C66.1726 94.7383 61.79 97.8421 41.4618 98.0568V131H37.0588L36.5647 98.0568C33.0796 98.0202 29.7184 97.8992 26.5404 97.6474C11.1107 96.4246 7.17535 92.1161 7.17535 79.3846C7.17535 70.0151 17.2125 55.3486 26.5404 50.067C21.5824 45.909 13.7609 34.0095 13.7609 27.7798C13.2906 17.7134 18.0152 14.728 29.3535 14.1198C32.97 11.4609 32.5411 5.43761 31.9219 0H43.1741C43.1741 0 42.4384 10.2411 48.1886 14.1198C57.5158 15.0375 63.1726 18.0259 63.1726 27.4594Z" fill="#22162B"/>
</svg>
