<svg width="310" height="370" viewBox="0 0 365 583" fill="none" xmlns="http://www.w3.org/2000/svg">
<path d="M317.996 112.39C317.996 134.028 279.428 188.979 266.804 204.922C306.338 225.447 345 281.332 345 324.917C345 387.759 313.273 400.462 243.822 401.341V536.176H228.779L227.091 401.341C215.185 401.192 203.702 400.697 192.844 399.666C140.129 394.661 127 377.026 127 324.917C127 286.568 160.975 226.539 192.844 204.922C175.905 187.903 149.183 139.199 149.183 113.702C147.576 72.4999 163.718 60.2811 202.455 57.7918C214.811 46.9088 213.345 22.2558 211.23 0H249.672C249.672 0 247.158 41.9162 266.804 57.7918C298.671 61.5478 317.996 73.7791 317.996 112.39Z" fill="#A178C5" fill-opacity="0.63"/>
<path d="M237.711 122.205C237.711 145.733 195.232 205.483 181.328 222.817C224.871 245.135 249 305.901 249 353.292C249 421.622 232.509 435.435 156.016 436.39V583H139.448L137.589 436.39C124.475 436.227 111.827 435.689 99.8686 434.568C41.8081 429.126 27 409.952 27 353.292C27 311.594 64.7686 246.322 99.8686 222.817C81.2121 204.313 51.7808 151.355 51.7808 123.631C50.0109 78.8313 67.789 65.5454 110.454 62.8387C124.062 51.0052 122.448 24.1995 120.118 0H162.459C162.459 0 159.691 45.5767 181.328 62.8387C216.425 66.9227 237.711 80.2222 237.711 122.205Z" fill="#22162B"/>
</svg>
