<svg width="560" height="150" viewBox="0 0 662 146" fill="none" xmlns="http://www.w3.org/2000/svg">
<path d="M1.02539 110.963C1.31022 113.356 1.82292 115.834 2.56348 118.397C3.30404 120.961 4.38639 123.297 5.81055 125.404C7.29167 127.455 9.14307 129.164 11.3647 130.531C13.6434 131.841 16.4347 132.497 19.7388 132.497C23.0428 132.497 26.2614 131.898 29.3945 130.702C32.5277 129.449 35.5754 127.711 38.5376 125.49C41.5568 123.268 44.4906 120.648 47.3389 117.628C50.1872 114.552 52.95 111.163 55.6274 107.46C52.4943 107.574 49.3327 107.716 46.1426 107.887C43.0094 108.001 39.8193 108.144 36.5723 108.314C35.8887 108.314 35.1196 108.428 34.2651 108.656C33.4106 108.827 32.8979 108.913 32.7271 108.913C32.1574 108.913 31.8726 108.542 31.8726 107.802C31.8726 107.46 31.958 107.061 32.1289 106.605C32.3568 106.15 32.6701 105.722 33.0688 105.324C33.4676 104.868 33.9518 104.498 34.5215 104.213C35.1481 103.928 35.8317 103.786 36.5723 103.786C38.1673 103.786 40.9017 103.729 44.7754 103.615C48.7061 103.444 53.3203 103.216 58.6182 102.931C62.6628 97.0067 66.508 90.6265 70.1538 83.7905C73.7996 76.9546 77.2461 70.1756 80.4932 63.4536C83.7402 56.6746 86.8164 50.1805 89.7217 43.9712C92.627 37.7049 95.3328 32.2077 97.8394 27.4795C100.346 22.6943 102.653 18.8776 104.761 16.0293C106.868 13.181 108.805 11.7568 110.571 11.7568C111.654 11.7568 112.508 12.1271 113.135 12.8677C113.818 13.5513 114.303 14.4912 114.587 15.6875C114.929 16.8268 115.129 18.1655 115.186 19.7036C115.299 21.1847 115.356 22.7228 115.356 24.3179C115.356 31.0399 115.072 37.6195 114.502 44.0566C113.989 50.4368 113.363 56.7886 112.622 63.1118C111.938 69.3781 111.226 75.6729 110.486 81.9961C109.802 88.2624 109.261 94.6426 108.862 101.137C110.457 101.023 111.995 100.966 113.477 100.966C114.958 100.966 116.382 100.966 117.749 100.966H121.423C122.734 100.966 123.873 101.023 124.841 101.137C125.867 101.194 126.379 101.507 126.379 102.077C126.379 102.76 126.038 103.501 125.354 104.298C124.727 105.039 123.674 105.409 122.192 105.409C119.8 105.523 117.493 105.58 115.271 105.58C113.049 105.58 110.799 105.58 108.521 105.58C108.407 107.745 108.35 109.91 108.35 112.074C108.35 114.182 108.35 116.318 108.35 118.483C108.35 120.306 108.464 122.129 108.691 123.952C108.919 125.775 109.375 127.427 110.059 128.908C110.742 130.332 111.682 131.528 112.878 132.497C114.132 133.408 115.755 133.864 117.749 133.864C119.173 133.864 120.569 133.522 121.936 132.838C123.36 132.098 124.699 131.158 125.952 130.019C127.205 128.822 128.345 127.512 129.37 126.088C130.396 124.664 131.25 123.24 131.934 121.815L132.959 122.328C132.275 123.809 131.421 125.575 130.396 127.626C129.427 129.677 128.259 131.642 126.892 133.522C125.525 135.402 123.901 136.997 122.021 138.307C120.199 139.674 118.091 140.358 115.698 140.358C111.426 140.358 108.35 138.706 106.47 135.402C104.647 132.041 103.735 126.999 103.735 120.277C103.735 117.885 103.735 115.492 103.735 113.1C103.792 110.65 103.935 108.201 104.163 105.751C96.4722 105.922 88.9526 106.15 81.604 106.435C74.3123 106.662 66.8783 106.947 59.3018 107.289C56.2256 111.846 53.0355 116.09 49.7314 120.021C46.4844 123.895 43.1519 127.284 39.7339 130.189C36.3729 133.038 32.9264 135.259 29.3945 136.854C25.9196 138.507 22.4162 139.333 18.8843 139.333C16.2638 139.333 14.0137 138.848 12.1338 137.88C10.2539 136.968 8.65885 135.744 7.34863 134.206C6.03841 132.611 4.92757 130.816 4.01611 128.822C3.16162 126.828 2.47803 124.806 1.96533 122.755C1.45264 120.648 1.05387 118.597 0.769043 116.603C0.484212 114.552 0.227865 112.729 0 111.134L1.02539 110.963ZM62.4634 102.76C65.7674 102.646 69.1854 102.532 72.7173 102.418C76.2492 102.248 79.8096 102.105 83.3984 101.991C86.9873 101.82 90.5477 101.678 94.0796 101.564C97.6115 101.393 101.029 101.251 104.333 101.137C104.675 94.8704 105.103 88.4618 105.615 81.9106C106.185 75.3026 106.698 68.723 107.153 62.1719C107.666 55.6208 108.093 49.1551 108.435 42.7749C108.834 36.3947 109.033 30.2424 109.033 24.3179C109.033 23.9191 109.005 23.3494 108.948 22.6089C108.948 21.8683 108.919 21.1562 108.862 20.4727C108.805 19.7891 108.72 19.1909 108.606 18.6782C108.492 18.1655 108.35 17.9092 108.179 17.9092C107.381 17.9092 106.213 19.1909 104.675 21.7544C103.194 24.2609 101.4 27.6789 99.292 32.0083C97.1842 36.2808 94.7917 41.2653 92.1143 46.9619C89.4938 52.6016 86.617 58.583 83.4839 64.9062C80.3507 71.1725 77.0182 77.5812 73.4863 84.1323C69.9544 90.6265 66.2801 96.8358 62.4634 102.76ZM168.079 117.458C167.68 118.597 167.053 120.135 166.199 122.072C165.344 124.009 164.176 125.917 162.695 127.797C161.271 129.62 159.505 131.186 157.397 132.497C155.347 133.807 152.954 134.405 150.22 134.291C147.77 134.12 145.719 133.408 144.067 132.155C142.415 130.902 141.077 128.993 140.051 126.43C139.026 123.809 138.285 120.534 137.83 116.603C137.374 112.615 137.146 107.83 137.146 102.248C137.146 96.8927 137.288 92.0791 137.573 87.8066C137.858 83.4772 138.228 79.6605 138.684 76.3564C136.064 76.4704 133.785 76.5273 131.848 76.5273C129.854 76.5273 128.459 76.5273 127.661 76.5273C126.009 76.5273 124.386 76.4134 122.791 76.1855C121.139 75.9577 119.6 75.5589 118.176 74.9893C116.752 74.4196 115.442 73.679 114.246 72.7676C113.049 71.7992 112.052 70.6029 111.255 69.1787L111.597 68.4097C111.654 68.5236 111.938 68.8084 112.451 69.2642C112.907 69.6629 113.761 70.0902 115.015 70.5459C116.268 71.0016 117.977 71.4289 120.142 71.8276C122.306 72.1694 125.098 72.3403 128.516 72.3403H139.197C140.108 67.2134 141.02 63.3966 141.931 60.8901C142.9 58.3267 143.555 56.7031 143.896 56.0195C144.352 55.0511 145.007 54.2251 145.862 53.5415C146.773 52.8579 147.542 52.5161 148.169 52.5161C149.365 52.5161 150.334 53.6554 151.074 55.9341C151.815 58.2127 152.185 61.7446 152.185 66.5298C152.185 67.3843 152.157 68.2957 152.1 69.2642C152.043 70.1756 152.014 71.1156 152.014 72.084C154.749 72.027 157.34 71.9701 159.79 71.9131C162.297 71.8561 164.518 71.7992 166.455 71.7422C168.449 71.6852 170.101 71.6283 171.411 71.5713C172.778 71.5143 173.661 71.4574 174.06 71.4004C174.345 71.4004 174.829 71.3719 175.513 71.3149C176.196 71.258 176.652 71.2295 176.88 71.2295C177.791 71.2295 178.247 71.5143 178.247 72.084C178.247 72.8815 177.991 73.6221 177.478 74.3057C177.022 74.9323 176.054 75.3026 174.573 75.4165C174.288 75.4735 173.433 75.5304 172.009 75.5874C170.642 75.5874 168.905 75.6159 166.797 75.6729C164.689 75.7298 162.325 75.8153 159.705 75.9292C157.084 75.9862 154.407 76.0716 151.672 76.1855C151.103 81.0277 150.077 86.3255 148.596 92.0791C147.115 97.7757 145.036 103.9 142.358 110.451C142.586 114.21 142.9 117.344 143.298 119.85C143.754 122.357 144.352 124.379 145.093 125.917C145.833 127.398 146.745 128.452 147.827 129.079C148.966 129.705 150.305 130.019 151.843 130.019C153.495 130.019 155.033 129.705 156.458 129.079C157.882 128.452 159.163 127.683 160.303 126.771C161.499 125.803 162.524 124.778 163.379 123.695C164.29 122.556 165.031 121.502 165.601 120.534C166.227 119.565 166.683 118.768 166.968 118.141C167.31 117.514 167.509 117.173 167.566 117.116L168.079 117.458ZM148.34 76.1855C147.371 76.1855 146.431 76.214 145.52 76.271C144.609 76.328 143.669 76.3564 142.7 76.3564C142.529 79.6035 142.387 82.936 142.273 86.354C142.216 89.772 142.188 93.019 142.188 96.0952V105.751C143.84 100.567 145.178 95.5256 146.204 90.6265C147.286 85.7274 147.998 80.9137 148.34 76.1855ZM143.042 72.3403C143.953 72.3403 144.865 72.3118 145.776 72.2549C146.745 72.141 147.713 72.084 148.682 72.084V69.1787C148.682 66.3304 148.596 64.0518 148.425 62.3428C148.254 60.6338 148.055 59.3236 147.827 58.4121C147.656 57.4437 147.428 56.8171 147.144 56.5322C146.916 56.1904 146.716 56.0195 146.545 56.0195C146.09 56.0195 145.691 56.4468 145.349 57.3013C145.007 58.1558 144.694 59.3236 144.409 60.8047C144.124 62.2288 143.868 63.9378 143.64 65.9316C143.412 67.9255 143.213 70.0617 143.042 72.3403ZM189.27 93.7881C190.011 93.959 190.381 94.4432 190.381 95.2407C190.381 95.4686 190.295 95.7819 190.125 96.1807C190.011 96.5225 189.84 96.8927 189.612 97.2915C189.441 97.6333 189.242 97.9466 189.014 98.2314C188.786 98.4593 188.586 98.5732 188.416 98.5732C188.131 98.5732 187.789 98.4878 187.39 98.3169C186.991 98.089 186.422 97.8612 185.681 97.6333C184.941 97.3485 183.972 97.1206 182.776 96.9497C181.58 96.7218 180.013 96.6079 178.076 96.6079C175.342 96.6079 173.063 97.1206 171.24 98.146C169.417 99.1714 168.506 100.596 168.506 102.418C168.506 103.729 169.047 104.84 170.129 105.751C171.269 106.605 172.579 107.289 174.06 107.802C175.598 108.314 177.136 108.685 178.674 108.913C180.269 109.14 181.494 109.254 182.349 109.254C182.975 109.254 183.374 109.368 183.545 109.596C183.773 109.767 183.887 109.938 183.887 110.109C183.887 110.565 183.687 110.849 183.289 110.963C182.947 111.02 182.491 111.134 181.921 111.305C180.44 111.818 178.931 112.473 177.393 113.271C175.854 114.011 174.43 114.923 173.12 116.005C171.867 117.03 170.841 118.198 170.044 119.508C169.246 120.819 168.848 122.243 168.848 123.781C168.848 126.344 169.873 128.48 171.924 130.189C174.032 131.841 176.965 132.667 180.725 132.667C184.998 132.667 188.558 132.041 191.406 130.788C194.255 129.477 196.59 127.968 198.413 126.259C200.293 124.55 201.746 122.841 202.771 121.132C203.796 119.366 204.565 118.027 205.078 117.116L205.591 117.458C204.622 120.249 203.369 122.841 201.831 125.233C200.35 127.626 198.527 129.705 196.362 131.471C194.255 133.18 191.777 134.547 188.928 135.573C186.08 136.541 182.833 137.025 179.187 137.025C176.965 137.025 174.915 136.741 173.035 136.171C171.155 135.658 169.531 134.918 168.164 133.949C166.797 132.981 165.743 131.785 165.002 130.36C164.262 128.936 163.892 127.313 163.892 125.49C163.892 123.382 164.376 121.559 165.344 120.021C166.313 118.483 167.424 117.23 168.677 116.261C169.93 115.236 171.155 114.467 172.351 113.954C173.604 113.384 174.487 112.986 175 112.758C173.234 112.473 171.667 111.989 170.3 111.305C169.161 110.679 168.107 109.824 167.139 108.742C166.17 107.602 165.686 106.064 165.686 104.127C165.686 102.361 166.113 100.766 166.968 99.3423C167.822 97.8612 168.962 96.6364 170.386 95.668C171.867 94.6995 173.547 93.959 175.427 93.4463C177.364 92.8766 179.415 92.5918 181.58 92.5918C182.833 92.5918 184.086 92.6772 185.339 92.8481C186.65 93.019 187.96 93.3324 189.27 93.7881ZM234.729 117.458C234.615 117.856 234.159 118.939 233.362 120.705C232.621 122.414 231.567 124.265 230.2 126.259C228.89 128.196 227.295 129.962 225.415 131.557C223.592 133.095 221.513 133.864 219.177 133.864C216.158 133.864 213.424 132.724 210.974 130.446C208.525 128.11 206.417 124.835 204.651 120.619C202.942 116.347 201.603 111.191 200.635 105.153C199.723 99.1144 199.268 92.3639 199.268 84.9014C199.268 80.7998 199.41 76.4989 199.695 71.9985C199.98 67.4412 200.435 62.9694 201.062 58.583C201.689 54.1966 202.458 50.0096 203.369 46.022C204.338 42.0343 205.477 38.5309 206.787 35.5117C208.097 32.4925 209.607 30.0999 211.316 28.334C213.082 26.5111 215.019 25.5996 217.126 25.5996C220.26 25.5996 222.538 27.508 223.962 31.3247C225.444 35.1414 226.184 41.0374 226.184 49.0127C226.184 53.6839 225.842 58.9248 225.159 64.7354C224.475 70.4889 223.307 76.3849 221.655 82.4233C219.491 90.0568 217.212 96.5794 214.819 101.991C212.484 107.346 210.49 111.618 208.838 114.809C209.465 117.03 210.148 119.053 210.889 120.875C211.686 122.698 212.569 124.293 213.538 125.661C214.506 126.971 215.56 127.996 216.699 128.737C217.839 129.477 219.092 129.848 220.459 129.848C222.168 129.848 223.763 129.335 225.244 128.31C226.725 127.284 228.035 126.088 229.175 124.721C230.371 123.354 231.396 121.958 232.251 120.534C233.105 119.11 233.761 117.97 234.216 117.116L234.729 117.458ZM204.48 78.9199C204.48 81.3125 204.537 83.9045 204.651 86.6958C204.822 89.4302 205.05 92.2215 205.334 95.0698C205.619 97.9181 205.961 100.766 206.36 103.615C206.816 106.463 207.357 109.197 207.983 111.818C209.18 109.311 210.575 106.093 212.17 102.162C213.822 98.2314 215.389 93.8166 216.87 88.9175C218.408 83.9614 219.69 78.6066 220.715 72.853C221.798 67.0994 222.339 61.1465 222.339 54.9941C222.339 51.1204 222.168 47.5885 221.826 44.3984C221.541 41.1514 221.086 38.3885 220.459 36.1099C219.832 33.7743 219.035 31.9798 218.066 30.7266C217.155 29.4163 216.073 28.7612 214.819 28.7612C213.623 28.7612 212.541 29.6157 211.572 31.3247C210.604 32.9767 209.721 35.1699 208.923 37.9043C208.183 40.6387 207.528 43.7718 206.958 47.3037C206.388 50.8356 205.904 54.453 205.505 58.1558C205.164 61.8586 204.907 65.5329 204.736 69.1787C204.565 72.7676 204.48 76.0146 204.48 78.9199ZM235.498 100.453C235.954 100.453 236.381 100.596 236.78 100.88C237.236 101.108 237.606 101.365 237.891 101.649C238.232 101.934 238.489 102.248 238.66 102.589C238.888 102.874 239.001 103.045 239.001 103.102C239.001 103.159 238.916 103.472 238.745 104.042C238.631 104.555 238.46 105.438 238.232 106.691C238.062 107.944 237.891 109.596 237.72 111.647C237.606 113.641 237.549 116.147 237.549 119.167C237.549 123.211 238.033 126.031 239.001 127.626C240.027 129.221 241.252 130.019 242.676 130.019C244.1 130.019 245.496 129.591 246.863 128.737C248.287 127.882 249.626 126.771 250.879 125.404C252.132 124.037 253.3 122.499 254.382 120.79C255.522 119.024 256.519 117.258 257.373 115.492L257.886 115.834C257.658 116.404 257.316 117.287 256.86 118.483C256.405 119.622 255.835 120.875 255.151 122.243C254.468 123.61 253.642 125.034 252.673 126.515C251.762 127.939 250.68 129.25 249.426 130.446C248.23 131.585 246.891 132.554 245.41 133.351C243.986 134.092 242.419 134.462 240.71 134.462C239.514 134.462 238.403 134.234 237.378 133.778C236.41 133.323 235.527 132.497 234.729 131.3C233.988 130.047 233.39 128.338 232.935 126.173C232.536 124.009 232.336 121.217 232.336 117.799C232.336 116.033 232.393 114.153 232.507 112.16C232.678 110.109 232.878 108.229 233.105 106.52C233.39 104.754 233.732 103.301 234.131 102.162C234.53 101.023 234.985 100.453 235.498 100.453ZM237.549 79.2617C238.973 79.2617 239.998 79.7744 240.625 80.7998C241.252 81.7682 241.565 82.9645 241.565 84.3887C241.565 86.0407 241.109 87.3224 240.198 88.2339C239.286 89.1453 238.175 89.6011 236.865 89.6011C235.897 89.6011 234.957 89.2308 234.045 88.4902C233.134 87.7497 232.678 86.5534 232.678 84.9014C232.678 83.0785 233.134 81.6828 234.045 80.7144C234.957 79.7459 236.125 79.2617 237.549 79.2617ZM278.137 93.7881C278.878 93.959 279.248 94.4432 279.248 95.2407C279.248 95.4686 279.163 95.7819 278.992 96.1807C278.878 96.5225 278.707 96.8927 278.479 97.2915C278.308 97.6333 278.109 97.9466 277.881 98.2314C277.653 98.4593 277.454 98.5732 277.283 98.5732C276.998 98.5732 276.656 98.4878 276.257 98.3169C275.859 98.089 275.289 97.8612 274.548 97.6333C273.808 97.3485 272.839 97.1206 271.643 96.9497C270.447 96.7218 268.88 96.6079 266.943 96.6079C264.209 96.6079 261.93 97.1206 260.107 98.146C258.285 99.1714 257.373 100.596 257.373 102.418C257.373 103.729 257.914 104.84 258.997 105.751C260.136 106.605 261.446 107.289 262.927 107.802C264.465 108.314 266.003 108.685 267.542 108.913C269.137 109.14 270.361 109.254 271.216 109.254C271.842 109.254 272.241 109.368 272.412 109.596C272.64 109.767 272.754 109.938 272.754 110.109C272.754 110.565 272.555 110.849 272.156 110.963C271.814 111.02 271.358 111.134 270.789 111.305C269.307 111.818 267.798 112.473 266.26 113.271C264.722 114.011 263.298 114.923 261.987 116.005C260.734 117.03 259.709 118.198 258.911 119.508C258.114 120.819 257.715 122.243 257.715 123.781C257.715 126.344 258.74 128.48 260.791 130.189C262.899 131.841 265.833 132.667 269.592 132.667C273.865 132.667 277.425 132.041 280.273 130.788C283.122 129.477 285.457 127.968 287.28 126.259C289.16 124.55 290.613 122.841 291.638 121.132C292.664 119.366 293.433 118.027 293.945 117.116L294.458 117.458C293.49 120.249 292.236 122.841 290.698 125.233C289.217 127.626 287.394 129.705 285.229 131.471C283.122 133.18 280.644 134.547 277.795 135.573C274.947 136.541 271.7 137.025 268.054 137.025C265.833 137.025 263.782 136.741 261.902 136.171C260.022 135.658 258.398 134.918 257.031 133.949C255.664 132.981 254.61 131.785 253.87 130.36C253.129 128.936 252.759 127.313 252.759 125.49C252.759 123.382 253.243 121.559 254.211 120.021C255.18 118.483 256.291 117.23 257.544 116.261C258.797 115.236 260.022 114.467 261.218 113.954C262.472 113.384 263.354 112.986 263.867 112.758C262.101 112.473 260.535 111.989 259.167 111.305C258.028 110.679 256.974 109.824 256.006 108.742C255.037 107.602 254.553 106.064 254.553 104.127C254.553 102.361 254.98 100.766 255.835 99.3423C256.689 97.8612 257.829 96.6364 259.253 95.668C260.734 94.6995 262.415 93.959 264.294 93.4463C266.231 92.8766 268.282 92.5918 270.447 92.5918C271.7 92.5918 272.953 92.6772 274.207 92.8481C275.517 93.019 276.827 93.3324 278.137 93.7881ZM259.68 85.2432C259.452 85.471 259.281 85.585 259.167 85.585C258.826 85.585 258.512 85.3856 258.228 84.9868C258 84.5311 257.886 84.0754 257.886 83.6196C257.886 83.3348 258.228 82.7651 258.911 81.9106C259.595 81.0562 260.449 80.0877 261.475 79.0054C262.557 77.923 263.696 76.7837 264.893 75.5874C266.146 74.3911 267.314 73.3088 268.396 72.3403C269.478 71.3149 270.39 70.4889 271.13 69.8623C271.928 69.2357 272.412 68.9224 272.583 68.9224C272.697 68.9224 272.953 68.9224 273.352 68.9224C273.751 68.9224 274.15 68.9793 274.548 69.0933C275.004 69.2072 275.403 69.4066 275.745 69.6914C276.143 69.9762 276.371 70.375 276.428 70.8877C277.226 72.8245 278.223 74.7329 279.419 76.6128C280.672 78.4357 282.267 80.1447 284.204 81.7397C284.375 81.9106 284.517 82.11 284.631 82.3379C284.802 82.5658 284.888 82.7651 284.888 82.936C284.888 83.5627 284.517 84.1038 283.777 84.5596C283.036 85.0153 282.068 85.2432 280.872 85.2432C279.96 84.5026 279.049 83.5342 278.137 82.3379C277.283 81.0846 276.457 79.8883 275.659 78.749C274.919 77.5527 274.207 76.5273 273.523 75.6729C272.896 74.8184 272.355 74.3911 271.899 74.3911C271.444 74.3911 270.732 74.7614 269.763 75.502C268.852 76.2425 267.798 77.154 266.602 78.2363C265.462 79.3187 264.266 80.515 263.013 81.8252C261.816 83.0785 260.706 84.2178 259.68 85.2432ZM344.104 99.0859C343.933 97.4339 343.819 95.7249 343.762 93.959C343.762 92.193 343.762 90.3416 343.762 88.4048C343.762 84.3032 343.848 80.0023 344.019 75.502C344.246 70.9447 344.56 66.4728 344.958 62.0864C345.414 57.7 345.955 53.513 346.582 49.5254C347.209 45.5378 347.978 42.0343 348.889 39.0151C349.801 35.9959 350.826 33.6034 351.965 31.8374C353.105 30.0145 354.386 29.103 355.811 29.103C357.975 29.103 359.57 31.0114 360.596 34.8281C361.621 38.6449 362.134 44.5409 362.134 52.5161C362.134 57.1873 361.82 62.4282 361.194 68.2388C360.624 73.9924 359.599 79.8883 358.118 85.9268C356.864 91.1107 355.668 95.668 354.529 99.5986C353.446 103.472 352.421 106.862 351.453 109.767C351.965 112.501 352.592 115.093 353.333 117.543C354.13 119.993 355.013 122.129 355.981 123.952C356.95 125.775 358.032 127.227 359.229 128.31C360.425 129.335 361.735 129.848 363.159 129.848C364.355 129.848 365.552 129.363 366.748 128.395C367.944 127.427 369.055 126.287 370.081 124.977C371.163 123.667 372.103 122.328 372.9 120.961C373.755 119.594 374.41 118.483 374.866 117.628L375.635 117.97C375.635 117.97 375.492 118.369 375.208 119.167C374.923 119.964 374.495 120.989 373.926 122.243C373.356 123.439 372.644 124.749 371.79 126.173C370.992 127.597 370.081 128.936 369.055 130.189C368.03 131.386 366.89 132.411 365.637 133.266C364.384 134.063 363.045 134.462 361.621 134.462C358.545 134.462 355.839 133.152 353.503 130.531C351.168 127.911 349.202 124.123 347.607 119.167C346.81 120.989 345.813 122.784 344.617 124.55C343.42 126.259 342.082 127.797 340.601 129.164C339.119 130.474 337.467 131.528 335.645 132.326C333.879 133.123 332.027 133.522 330.09 133.522C328.609 133.522 327.185 133.266 325.818 132.753C324.508 132.24 323.368 131.5 322.4 130.531C321.431 129.506 320.662 128.31 320.093 126.942C319.523 125.575 319.238 124.037 319.238 122.328C319.238 119.423 319.893 116.603 321.204 113.869C322.514 111.077 324.28 108.599 326.501 106.435C328.723 104.213 331.258 102.447 334.106 101.137C337.012 99.7695 340.059 99.0859 343.25 99.0859H344.104ZM354.272 33.1191C353.646 33.1191 353.076 33.9451 352.563 35.5972C352.108 37.1922 351.681 39.3285 351.282 42.0059C350.883 44.6833 350.541 47.7594 350.256 51.2344C349.972 54.7093 349.715 58.2697 349.487 61.9155C349.316 65.5614 349.174 69.1787 349.06 72.7676C349.003 76.2995 348.975 79.5181 348.975 82.4233C348.975 85.7843 349.117 89.4587 349.402 93.4463C349.687 97.377 350.142 101.308 350.769 105.238C351.624 102.504 352.507 99.4277 353.418 96.0098C354.329 92.5348 355.127 88.832 355.811 84.9014C356.551 80.9137 357.149 76.7267 357.605 72.3403C358.061 67.897 358.289 63.2827 358.289 58.4976C358.289 54.5669 358.203 51.035 358.032 47.9019C357.861 44.7687 357.605 42.1198 357.263 39.9551C356.978 37.7334 356.58 36.0529 356.067 34.9136C355.554 33.7173 354.956 33.1191 354.272 33.1191ZM333.423 128.31C335.189 128.31 336.755 127.939 338.123 127.199C339.49 126.401 340.715 125.433 341.797 124.293C342.879 123.097 343.819 121.787 344.617 120.363C345.414 118.939 346.126 117.571 346.753 116.261C346.183 114.21 345.728 112.103 345.386 109.938C345.044 107.716 344.731 105.381 344.446 102.931C343.591 102.589 342.651 102.418 341.626 102.418C338.664 102.418 336.1 102.903 333.936 103.871C331.828 104.783 330.09 105.979 328.723 107.46C327.356 108.941 326.331 110.593 325.647 112.416C325.02 114.239 324.707 116.033 324.707 117.799C324.707 120.819 325.505 123.325 327.1 125.319C328.752 127.313 330.859 128.31 333.423 128.31ZM402.039 106.435C401.526 106.435 401.042 106.15 400.586 105.58C400.187 104.953 399.646 104.298 398.962 103.615C398.279 102.931 397.396 102.305 396.313 101.735C395.288 101.108 393.921 100.795 392.212 100.795C389.819 100.795 387.598 101.422 385.547 102.675C383.496 103.871 381.73 105.409 380.249 107.289C378.768 109.112 377.6 111.134 376.746 113.356C375.948 115.521 375.549 117.571 375.549 119.508C375.549 122.528 376.318 125.006 377.856 126.942C379.395 128.879 381.445 129.848 384.009 129.848C386.003 129.848 387.74 129.477 389.221 128.737C390.759 127.939 392.041 126.914 393.066 125.661C392.725 124.123 392.554 122.214 392.554 119.936C392.554 117.486 392.725 115.492 393.066 113.954C393.465 112.416 393.921 111.22 394.434 110.365C395.003 109.511 395.573 108.941 396.143 108.656C396.712 108.314 397.196 108.144 397.595 108.144C398.051 108.144 398.564 108.457 399.133 109.083C399.76 109.71 400.073 110.821 400.073 112.416C400.073 114.41 399.703 116.518 398.962 118.739C398.279 120.904 397.31 122.983 396.057 124.977C396.741 126.743 397.795 128.025 399.219 128.822C400.643 129.62 402.266 130.019 404.089 130.019C405.684 130.019 407.166 129.677 408.533 128.993C409.957 128.253 411.267 127.284 412.463 126.088C413.717 124.892 414.884 123.524 415.967 121.986C417.049 120.391 418.046 118.768 418.958 117.116L419.47 117.458C418.787 119.622 417.875 121.73 416.736 123.781C415.597 125.832 414.286 127.654 412.805 129.25C411.324 130.845 409.701 132.126 407.935 133.095C406.226 134.006 404.431 134.462 402.551 134.462C401.127 134.462 399.561 134.006 397.852 133.095C396.2 132.126 394.832 130.417 393.75 127.968C391.984 130.076 389.962 131.841 387.683 133.266C385.404 134.633 382.955 135.316 380.334 135.316C378.853 135.316 377.515 134.975 376.318 134.291C375.122 133.607 374.097 132.696 373.242 131.557C372.445 130.417 371.818 129.079 371.362 127.541C370.907 126.002 370.679 124.379 370.679 122.67C370.679 119.765 371.305 116.859 372.559 113.954C373.869 111.049 375.578 108.428 377.686 106.093C379.85 103.757 382.3 101.877 385.034 100.453C387.826 98.972 390.731 98.2314 393.75 98.2314C395.972 98.2314 397.823 98.4878 399.304 99.0005C400.842 99.4562 402.067 100.026 402.979 100.709C403.89 101.336 404.545 101.991 404.944 102.675C405.343 103.358 405.542 103.9 405.542 104.298C405.542 105.096 405.115 105.666 404.26 106.007C403.463 106.292 402.722 106.435 402.039 106.435ZM394.861 117.799C394.861 119.679 395.032 121.303 395.374 122.67C396.228 121.075 396.855 119.451 397.253 117.799C397.652 116.09 397.852 114.638 397.852 113.441C397.852 112.017 397.595 111.305 397.083 111.305C396.57 111.305 396.057 111.932 395.544 113.185C395.089 114.438 394.861 115.976 394.861 117.799ZM548.84 132.838C548.499 133.522 547.729 134.576 546.533 136C545.337 137.367 543.856 138.734 542.09 140.102C540.381 141.526 538.387 142.75 536.108 143.776C533.887 144.801 531.523 145.314 529.016 145.314C525.826 145.314 522.778 144.403 519.873 142.58C517.025 140.757 514.29 138.507 511.67 135.829C509.106 133.152 506.657 130.275 504.321 127.199C502.043 124.123 499.849 121.331 497.742 118.825C496.83 118.996 495.919 119.11 495.007 119.167C494.096 119.167 493.184 119.167 492.273 119.167C490.621 119.167 489.111 119.081 487.744 118.91C486.377 118.682 485.209 118.312 484.241 117.799C483.956 121.046 483.671 124.293 483.386 127.541C483.158 130.788 482.874 134.063 482.532 137.367C482.532 138.165 482.19 138.734 481.506 139.076C480.88 139.475 480.168 139.674 479.37 139.674C478.743 139.674 478.174 139.56 477.661 139.333C477.148 139.105 476.892 138.82 476.892 138.478C476.892 138.079 477.177 137.652 477.747 137.196C479 117.828 479.968 98.3739 480.652 78.8345C481.392 59.2951 482.076 39.4993 482.703 19.4473C477.633 21.0993 472.819 23.1785 468.262 25.6851C463.761 28.1346 459.802 30.9829 456.384 34.23C453.023 37.4201 450.346 40.9235 448.352 44.7402C446.358 48.557 445.361 52.6016 445.361 56.874C445.361 58.2982 445.504 59.6084 445.789 60.8047C446.13 62.001 446.529 63.0833 446.985 64.0518C447.441 64.9632 447.896 65.7607 448.352 66.4443C448.865 67.071 449.292 67.5552 449.634 67.897L448.523 68.666C448.238 68.3242 447.839 67.8115 447.327 67.1279C446.814 66.3874 446.301 65.4759 445.789 64.3936C445.333 63.3112 444.906 62.0579 444.507 60.6338C444.165 59.2096 443.994 57.6146 443.994 55.8486C443.994 50.8356 445.048 46.1644 447.156 41.835C449.32 37.4486 452.197 33.4894 455.786 29.9575C459.375 26.4256 463.505 23.321 468.176 20.6436C472.904 17.9092 477.804 15.6305 482.874 13.8076C482.987 11.8708 483.073 9.93392 483.13 7.99707C483.187 6.06022 483.272 4.09489 483.386 2.10107C483.386 1.58838 483.757 1.2181 484.497 0.990234C485.238 0.705404 485.978 0.562988 486.719 0.562988C487.345 0.562988 487.887 0.648438 488.342 0.819336C488.855 0.990234 489.111 1.24658 489.111 1.58838C489.111 1.81624 488.997 2.04411 488.77 2.27197C488.656 3.92399 488.57 5.57601 488.513 7.22803C488.456 8.88005 488.371 10.5036 488.257 12.0986C495.549 10.1048 502.441 9.10791 508.936 9.10791C514.803 9.10791 520.357 9.90544 525.598 11.5005C530.896 13.0955 535.539 15.6021 539.526 19.02C543.514 22.381 546.676 26.7104 549.011 32.0083C551.347 37.2492 552.515 43.5724 552.515 50.978C552.515 55.4784 551.917 60.1211 550.72 64.9062C549.524 69.6344 547.843 74.2772 545.679 78.8345C543.514 83.3918 540.922 87.7782 537.903 91.9937C534.884 96.2091 531.523 100.054 527.82 103.529C524.117 106.947 520.158 109.938 515.942 112.501C511.727 115.008 507.34 116.831 502.783 117.97C505.005 120.192 507.17 122.613 509.277 125.233C511.442 127.797 513.664 130.189 515.942 132.411C518.221 134.576 520.642 136.37 523.206 137.794C525.826 139.276 528.703 140.016 531.836 140.016C533.545 140.016 535.254 139.788 536.963 139.333C538.729 138.877 540.352 138.279 541.833 137.538C543.315 136.854 544.625 136.057 545.764 135.146C546.96 134.234 547.815 133.351 548.328 132.497L548.84 132.838ZM488.086 18.0801C487.573 33.2331 487.146 48.3861 486.804 63.5391C486.519 78.6921 485.836 94.1584 484.753 109.938C485.038 109.824 485.352 109.739 485.693 109.682C486.035 109.625 486.434 109.596 486.89 109.596C489.51 109.596 491.931 110.166 494.153 111.305C496.375 112.388 498.511 113.84 500.562 115.663C505.062 114.809 509.306 113.356 513.293 111.305C517.338 109.254 521.069 106.748 524.487 103.786C527.905 100.766 530.981 97.4054 533.716 93.7026C536.45 89.9998 538.786 86.0692 540.723 81.9106C542.66 77.7521 544.141 73.4797 545.166 69.0933C546.191 64.6499 546.704 60.235 546.704 55.8486C546.704 50.0951 545.992 44.7687 544.568 39.8696C543.144 34.9136 540.865 30.6411 537.732 27.0522C534.599 23.4634 530.526 20.672 525.513 18.6782C520.5 16.6274 514.376 15.6021 507.141 15.6021C500.875 15.6021 494.523 16.4281 488.086 18.0801ZM492.273 116.432C492.843 116.432 493.384 116.432 493.896 116.432C494.409 116.432 494.922 116.375 495.435 116.261C494.124 114.951 492.871 113.869 491.675 113.014C490.479 112.103 489.339 111.647 488.257 111.647C487.231 111.647 486.405 111.846 485.779 112.245C485.209 112.644 484.924 113.157 484.924 113.783C484.924 114.581 485.636 115.236 487.061 115.749C488.542 116.204 490.279 116.432 492.273 116.432ZM568.323 130.617C569.69 130.617 571.029 130.332 572.339 129.762C573.649 129.136 574.817 128.253 575.842 127.113C576.868 125.917 577.665 124.464 578.235 122.755C578.861 121.046 579.175 119.053 579.175 116.774C579.175 114.894 578.947 113.128 578.491 111.476C578.035 109.767 577.352 108.286 576.44 107.033C575.586 105.779 574.447 104.783 573.022 104.042C571.655 103.301 570.032 102.931 568.152 102.931C566.842 102.931 565.531 103.188 564.221 103.7C562.911 104.156 561.743 104.925 560.718 106.007C559.692 107.033 558.866 108.371 558.24 110.023C557.613 111.618 557.3 113.555 557.3 115.834C557.3 117.657 557.528 119.451 557.983 121.217C558.439 122.926 559.094 124.493 559.949 125.917C560.86 127.341 562 128.48 563.367 129.335C564.791 130.189 566.443 130.617 568.323 130.617ZM565.332 134.975C561.572 134.975 558.496 133.75 556.104 131.3C553.711 128.794 552.515 125.176 552.515 120.448C552.515 117.258 553.113 114.324 554.309 111.647C555.505 108.913 557.043 106.577 558.923 104.64C560.86 102.646 562.996 101.108 565.332 100.026C567.668 98.9435 569.946 98.4023 572.168 98.4023C575.757 98.4023 578.634 99.6271 580.798 102.077C582.963 104.526 584.045 108.144 584.045 112.929C584.045 116.119 583.476 119.053 582.336 121.73C581.254 124.407 579.801 126.743 577.979 128.737C576.213 130.674 574.219 132.212 571.997 133.351C569.775 134.433 567.554 134.975 565.332 134.975ZM589.087 125.661C591.024 122.584 592.761 119.451 594.299 116.261C595.837 113.014 597.119 109.853 598.145 106.776C596.777 104.84 595.61 102.874 594.641 100.88C593.73 98.8296 593.274 96.7218 593.274 94.5571C593.274 92.4494 593.473 90.541 593.872 88.832C594.271 87.123 594.812 85.6704 595.496 84.4741C596.179 83.2778 596.948 82.3664 597.803 81.7397C598.657 81.0562 599.54 80.7144 600.452 80.7144C601.705 80.7144 602.702 81.341 603.442 82.5942C604.24 83.8475 604.582 85.4425 604.468 87.3794C604.354 89.658 604.041 92.1076 603.528 94.728C603.072 97.3485 602.389 100.026 601.477 102.76C602.616 104.07 603.784 105.381 604.98 106.691C606.234 107.944 607.345 109.254 608.313 110.622C609.338 111.989 610.164 113.47 610.791 115.065C611.475 116.603 611.816 118.284 611.816 120.106C611.816 122.613 611.332 124.92 610.364 127.028C609.452 129.136 608.341 130.958 607.031 132.497C605.721 134.035 604.354 135.231 602.93 136.085C601.506 136.94 600.281 137.367 599.255 137.367C597.489 137.367 596.122 136.911 595.154 136C594.242 135.089 593.787 134.092 593.787 133.009C593.787 132.155 593.929 131.3 594.214 130.446C594.499 129.591 594.812 128.822 595.154 128.139C595.553 127.398 595.923 126.8 596.265 126.344C596.663 125.889 596.948 125.661 597.119 125.661C597.404 125.661 597.575 125.775 597.632 126.002C597.746 126.173 597.803 126.344 597.803 126.515C597.803 126.8 597.774 127.199 597.717 127.711C597.66 128.224 597.632 128.651 597.632 128.993C597.632 129.962 597.945 130.759 598.572 131.386C599.255 132.012 600.338 132.326 601.819 132.326C602.445 132.326 603.158 132.183 603.955 131.898C604.753 131.614 605.522 131.158 606.262 130.531C607.003 129.905 607.601 129.136 608.057 128.224C608.569 127.256 608.826 126.116 608.826 124.806C608.826 123.61 608.541 122.357 607.971 121.046C607.402 119.736 606.661 118.397 605.75 117.03C604.838 115.663 603.813 114.267 602.673 112.843C601.591 111.419 600.509 109.966 599.426 108.485C598.116 111.732 596.663 114.894 595.068 117.97C593.53 120.989 591.878 123.781 590.112 126.344L589.087 125.661ZM595.581 90.1138C595.581 92.2785 595.98 94.2153 596.777 95.9243C597.575 97.5763 598.629 99.1999 599.939 100.795C600.395 99.029 600.708 97.3485 600.879 95.7534C601.05 94.1014 601.135 92.5348 601.135 91.0537C601.135 87.0661 600.252 85.0723 598.486 85.0723C597.974 85.0723 597.347 85.471 596.606 86.2686C595.923 87.0091 595.581 88.2909 595.581 90.1138ZM645.398 93.7881C646.139 93.959 646.509 94.4432 646.509 95.2407C646.509 95.4686 646.423 95.7819 646.252 96.1807C646.139 96.5225 645.968 96.8927 645.74 97.2915C645.569 97.6333 645.369 97.9466 645.142 98.2314C644.914 98.4593 644.714 98.5732 644.543 98.5732C644.259 98.5732 643.917 98.4878 643.518 98.3169C643.119 98.089 642.55 97.8612 641.809 97.6333C641.069 97.3485 640.1 97.1206 638.904 96.9497C637.708 96.7218 636.141 96.6079 634.204 96.6079C631.47 96.6079 629.191 97.1206 627.368 98.146C625.545 99.1714 624.634 100.596 624.634 102.418C624.634 103.729 625.175 104.84 626.257 105.751C627.397 106.605 628.707 107.289 630.188 107.802C631.726 108.314 633.264 108.685 634.802 108.913C636.397 109.14 637.622 109.254 638.477 109.254C639.103 109.254 639.502 109.368 639.673 109.596C639.901 109.767 640.015 109.938 640.015 110.109C640.015 110.565 639.815 110.849 639.417 110.963C639.075 111.02 638.619 111.134 638.049 111.305C636.568 111.818 635.059 112.473 633.521 113.271C631.982 114.011 630.558 114.923 629.248 116.005C627.995 117.03 626.969 118.198 626.172 119.508C625.374 120.819 624.976 122.243 624.976 123.781C624.976 126.344 626.001 128.48 628.052 130.189C630.16 131.841 633.093 132.667 636.853 132.667C641.125 132.667 644.686 132.041 647.534 130.788C650.382 129.477 652.718 127.968 654.541 126.259C656.421 124.55 657.874 122.841 658.899 121.132C659.924 119.366 660.693 118.027 661.206 117.116L661.719 117.458C660.75 120.249 659.497 122.841 657.959 125.233C656.478 127.626 654.655 129.705 652.49 131.471C650.382 133.18 647.904 134.547 645.056 135.573C642.208 136.541 638.961 137.025 635.315 137.025C633.093 137.025 631.042 136.741 629.163 136.171C627.283 135.658 625.659 134.918 624.292 133.949C622.925 132.981 621.871 131.785 621.13 130.36C620.39 128.936 620.02 127.313 620.02 125.49C620.02 123.382 620.504 121.559 621.472 120.021C622.441 118.483 623.551 117.23 624.805 116.261C626.058 115.236 627.283 114.467 628.479 113.954C629.732 113.384 630.615 112.986 631.128 112.758C629.362 112.473 627.795 111.989 626.428 111.305C625.289 110.679 624.235 109.824 623.267 108.742C622.298 107.602 621.814 106.064 621.814 104.127C621.814 102.361 622.241 100.766 623.096 99.3423C623.95 97.8612 625.09 96.6364 626.514 95.668C627.995 94.6995 629.675 93.959 631.555 93.4463C633.492 92.8766 635.543 92.5918 637.708 92.5918C638.961 92.5918 640.214 92.6772 641.467 92.8481C642.778 93.019 644.088 93.3324 645.398 93.7881Z" fill="black"/>
</svg>
