<svg width="349" height="74" viewBox="0 0 379 84" fill="none" xmlns="http://www.w3.org/2000/svg">
<path d="M0.585938 63.6934C0.748698 65.0605 1.04167 66.4766 1.46484 67.9414C1.88802 69.4062 2.50651 70.7409 3.32031 71.9453C4.16667 73.1172 5.22461 74.0938 6.49414 74.875C7.79622 75.6237 9.39128 75.998 11.2793 75.998C13.1673 75.998 15.0065 75.6562 16.7969 74.9727C18.5872 74.2565 20.3288 73.2637 22.0215 71.9941C23.7467 70.7246 25.4232 69.2272 27.0508 67.502C28.6784 65.7441 30.2572 63.8073 31.7871 61.6914C29.9967 61.7565 28.1901 61.8379 26.3672 61.9355C24.5768 62.0007 22.7539 62.082 20.8984 62.1797C20.5078 62.1797 20.0684 62.2448 19.5801 62.375C19.0918 62.4727 18.7988 62.5215 18.7012 62.5215C18.3757 62.5215 18.2129 62.3099 18.2129 61.8867C18.2129 61.6914 18.2617 61.4635 18.3594 61.2031C18.4896 60.9427 18.6686 60.6986 18.8965 60.4707C19.1243 60.2103 19.401 59.9987 19.7266 59.8359C20.0846 59.6732 20.4753 59.5918 20.8984 59.5918C21.8099 59.5918 23.3724 59.5592 25.5859 59.4941C27.832 59.3965 30.4688 59.2663 33.4961 59.1035C35.8073 55.7181 38.0046 52.0723 40.0879 48.166C42.1712 44.2598 44.1406 40.3861 45.9961 36.5449C47.8516 32.6712 49.6094 28.9603 51.2695 25.4121C52.9297 21.8314 54.4759 18.6901 55.9082 15.9883C57.3405 13.2539 58.6589 11.0729 59.8633 9.44531C61.0677 7.81771 62.1745 7.00391 63.1836 7.00391C63.8021 7.00391 64.2904 7.21549 64.6484 7.63867C65.0391 8.0293 65.3158 8.56641 65.4785 9.25C65.6738 9.90104 65.7878 10.666 65.8203 11.5449C65.8854 12.3913 65.918 13.2702 65.918 14.1816C65.918 18.0228 65.7552 21.7826 65.4297 25.4609C65.1367 29.1068 64.7786 32.7363 64.3555 36.3496C63.9648 39.9303 63.5579 43.5273 63.1348 47.1406C62.7441 50.7214 62.4349 54.3672 62.207 58.0781C63.1185 58.013 63.9974 57.9805 64.8438 57.9805C65.6901 57.9805 66.5039 57.9805 67.2852 57.9805H69.3848C70.1335 57.9805 70.7845 58.013 71.3379 58.0781C71.9238 58.1107 72.2168 58.2897 72.2168 58.6152C72.2168 59.0059 72.0215 59.429 71.6309 59.8848C71.2728 60.3079 70.6706 60.5195 69.8242 60.5195C68.457 60.5846 67.1387 60.6172 65.8691 60.6172C64.5996 60.6172 63.3138 60.6172 62.0117 60.6172C61.9466 61.8542 61.9141 63.0911 61.9141 64.3281C61.9141 65.5326 61.9141 66.7533 61.9141 67.9902C61.9141 69.0319 61.9792 70.0736 62.1094 71.1152C62.2396 72.1569 62.5 73.1009 62.8906 73.9473C63.2812 74.7611 63.8184 75.4447 64.502 75.998C65.2181 76.5189 66.1458 76.7793 67.2852 76.7793C68.099 76.7793 68.8965 76.584 69.6777 76.1934C70.4915 75.7702 71.2565 75.2331 71.9727 74.582C72.6888 73.8984 73.3398 73.1497 73.9258 72.3359C74.5117 71.5221 75 70.7083 75.3906 69.8945L75.9766 70.1875C75.5859 71.0339 75.0977 72.043 74.5117 73.2148C73.9583 74.3867 73.291 75.5098 72.5098 76.584C71.7285 77.6582 70.8008 78.5697 69.7266 79.3184C68.6849 80.0996 67.4805 80.4902 66.1133 80.4902C63.6719 80.4902 61.9141 79.5462 60.8398 77.6582C59.7982 75.7376 59.2773 72.8568 59.2773 69.0156C59.2773 67.6484 59.2773 66.2812 59.2773 64.9141C59.3099 63.5143 59.3913 62.1146 59.5215 60.7148C55.127 60.8125 50.8301 60.9427 46.6309 61.1055C42.4642 61.2357 38.2161 61.3984 33.8867 61.5938C32.1289 64.1979 30.306 66.623 28.418 68.8691C26.5625 71.0827 24.6582 73.0195 22.7051 74.6797C20.7845 76.3073 18.8151 77.5768 16.7969 78.4883C14.8112 79.4323 12.8092 79.9043 10.791 79.9043C9.29362 79.9043 8.00781 79.6276 6.93359 79.0742C5.85938 78.5534 4.94792 77.8535 4.19922 76.9746C3.45052 76.0632 2.81576 75.0378 2.29492 73.8984C1.80664 72.7591 1.41602 71.6035 1.12305 70.4316C0.830078 69.2272 0.602214 68.0553 0.439453 66.916C0.276693 65.7441 0.130208 64.7025 0 63.791L0.585938 63.6934ZM35.6934 59.0059C37.5814 58.9408 39.5345 58.8757 41.5527 58.8105C43.571 58.7129 45.6055 58.6315 47.6562 58.5664C49.707 58.4688 51.7415 58.3874 53.7598 58.3223C55.778 58.2246 57.7311 58.1432 59.6191 58.0781C59.8145 54.4974 60.0586 50.8353 60.3516 47.0918C60.6771 43.3158 60.9701 39.556 61.2305 35.8125C61.5234 32.069 61.7676 28.3743 61.9629 24.7285C62.1908 21.0827 62.3047 17.5671 62.3047 14.1816C62.3047 13.9538 62.2884 13.6283 62.2559 13.2051C62.2559 12.7819 62.2396 12.375 62.207 11.9844C62.1745 11.5938 62.1257 11.252 62.0605 10.959C61.9954 10.666 61.9141 10.5195 61.8164 10.5195C61.3607 10.5195 60.6934 11.252 59.8145 12.7168C58.9681 14.1491 57.9427 16.1022 56.7383 18.5762C55.5339 21.0176 54.1667 23.8659 52.6367 27.1211C51.1393 30.3438 49.4954 33.7617 47.7051 37.375C45.9147 40.9557 44.0104 44.6178 41.9922 48.3613C39.974 52.0723 37.8743 55.6204 35.6934 59.0059ZM96.0449 67.4043C95.8171 68.0553 95.459 68.9342 94.9707 70.041C94.4824 71.1478 93.8151 72.2383 92.9688 73.3125C92.1549 74.3542 91.1458 75.2493 89.9414 75.998C88.7695 76.7467 87.4023 77.0885 85.8398 77.0234C84.4401 76.9258 83.2682 76.5189 82.3242 75.8027C81.3802 75.0866 80.6152 73.9961 80.0293 72.5312C79.4434 71.0339 79.0202 69.1621 78.7598 66.916C78.4993 64.6374 78.3691 61.903 78.3691 58.7129C78.3691 55.653 78.4505 52.9023 78.6133 50.4609C78.776 47.987 78.9876 45.806 79.248 43.918C77.7507 43.9831 76.4486 44.0156 75.3418 44.0156C74.2025 44.0156 73.4049 44.0156 72.9492 44.0156C72.0052 44.0156 71.0775 43.9505 70.166 43.8203C69.222 43.6901 68.3431 43.4622 67.5293 43.1367C66.7155 42.8112 65.9668 42.388 65.2832 41.8672C64.5996 41.3138 64.0299 40.6302 63.5742 39.8164L63.7695 39.377C63.8021 39.4421 63.9648 39.6048 64.2578 39.8652C64.5182 40.0931 65.0065 40.3372 65.7227 40.5977C66.4388 40.8581 67.4154 41.1022 68.6523 41.3301C69.8893 41.5254 71.4844 41.623 73.4375 41.623H79.541C80.0618 38.6934 80.5827 36.5124 81.1035 35.0801C81.6569 33.6152 82.0312 32.6875 82.2266 32.2969C82.487 31.7435 82.8613 31.2715 83.3496 30.8809C83.8704 30.4902 84.3099 30.2949 84.668 30.2949C85.3516 30.2949 85.9049 30.946 86.3281 32.248C86.7513 33.5501 86.9629 35.5684 86.9629 38.3027C86.9629 38.791 86.9466 39.3118 86.9141 39.8652C86.8815 40.3861 86.8652 40.9232 86.8652 41.4766C88.4277 41.444 89.9089 41.4115 91.3086 41.3789C92.7409 41.3464 94.0104 41.3138 95.1172 41.2812C96.2565 41.2487 97.2005 41.2161 97.9492 41.1836C98.7305 41.151 99.235 41.1185 99.4629 41.0859C99.6257 41.0859 99.9023 41.0697 100.293 41.0371C100.684 41.0046 100.944 40.9883 101.074 40.9883C101.595 40.9883 101.855 41.151 101.855 41.4766C101.855 41.9323 101.709 42.3555 101.416 42.7461C101.156 43.1042 100.602 43.3158 99.7559 43.3809C99.5931 43.4134 99.1048 43.446 98.291 43.4785C97.5098 43.4785 96.5169 43.4948 95.3125 43.5273C94.1081 43.5599 92.7572 43.6087 91.2598 43.6738C89.7624 43.7064 88.2324 43.7552 86.6699 43.8203C86.3444 46.5872 85.7585 49.6146 84.9121 52.9023C84.0658 56.1576 82.8776 59.6569 81.3477 63.4004C81.4779 65.5488 81.6569 67.3392 81.8848 68.7715C82.1452 70.2038 82.487 71.3594 82.9102 72.2383C83.3333 73.0846 83.8542 73.6868 84.4727 74.0449C85.1237 74.403 85.8887 74.582 86.7676 74.582C87.7116 74.582 88.5905 74.403 89.4043 74.0449C90.2181 73.6868 90.9505 73.2474 91.6016 72.7266C92.2852 72.1732 92.8711 71.5872 93.3594 70.9688C93.8802 70.3177 94.3034 69.7155 94.6289 69.1621C94.987 68.6087 95.2474 68.153 95.4102 67.7949C95.6055 67.4368 95.7194 67.2415 95.752 67.209L96.0449 67.4043ZM84.7656 43.8203C84.2122 43.8203 83.6751 43.8366 83.1543 43.8691C82.6335 43.9017 82.0964 43.918 81.543 43.918C81.4453 45.7734 81.3639 47.6777 81.2988 49.6309C81.2663 51.584 81.25 53.4395 81.25 55.1973V60.7148C82.194 57.7526 82.959 54.8717 83.5449 52.0723C84.1634 49.2728 84.5703 46.5221 84.7656 43.8203ZM81.7383 41.623C82.2591 41.623 82.7799 41.6068 83.3008 41.5742C83.8542 41.5091 84.4076 41.4766 84.9609 41.4766V39.8164C84.9609 38.1888 84.9121 36.8867 84.8145 35.9102C84.7168 34.9336 84.6029 34.1849 84.4727 33.6641C84.375 33.1107 84.2448 32.7526 84.082 32.5898C83.9518 32.3945 83.8379 32.2969 83.7402 32.2969C83.4798 32.2969 83.252 32.541 83.0566 33.0293C82.8613 33.5176 82.6823 34.1849 82.5195 35.0312C82.3568 35.8451 82.2103 36.8216 82.0801 37.9609C81.9499 39.1003 81.8359 40.321 81.7383 41.623ZM108.154 53.8789C108.577 53.9766 108.789 54.2533 108.789 54.709C108.789 54.8392 108.74 55.0182 108.643 55.2461C108.577 55.4414 108.48 55.653 108.35 55.8809C108.252 56.0762 108.138 56.2552 108.008 56.418C107.878 56.5482 107.764 56.6133 107.666 56.6133C107.503 56.6133 107.308 56.5645 107.08 56.4668C106.852 56.3366 106.527 56.2064 106.104 56.0762C105.68 55.9134 105.127 55.7832 104.443 55.6855C103.76 55.5553 102.865 55.4902 101.758 55.4902C100.195 55.4902 98.8932 55.7832 97.8516 56.3691C96.8099 56.9551 96.2891 57.7689 96.2891 58.8105C96.2891 59.5592 96.5983 60.194 97.2168 60.7148C97.8678 61.2031 98.6165 61.5938 99.4629 61.8867C100.342 62.1797 101.221 62.3913 102.1 62.5215C103.011 62.6517 103.711 62.7168 104.199 62.7168C104.557 62.7168 104.785 62.7819 104.883 62.9121C105.013 63.0098 105.078 63.1074 105.078 63.2051C105.078 63.4655 104.964 63.6283 104.736 63.6934C104.541 63.7259 104.281 63.791 103.955 63.8887C103.109 64.1816 102.246 64.556 101.367 65.0117C100.488 65.4349 99.6745 65.9557 98.9258 66.5742C98.2096 67.1602 97.6237 67.8275 97.168 68.5762C96.7122 69.3249 96.4844 70.1387 96.4844 71.0176C96.4844 72.4824 97.0703 73.7031 98.2422 74.6797C99.4466 75.6237 101.123 76.0957 103.271 76.0957C105.713 76.0957 107.747 75.7376 109.375 75.0215C111.003 74.2728 112.337 73.4102 113.379 72.4336C114.453 71.457 115.283 70.4805 115.869 69.5039C116.455 68.4948 116.895 67.7298 117.188 67.209L117.48 67.4043C116.927 68.9993 116.211 70.4805 115.332 71.8477C114.486 73.2148 113.444 74.403 112.207 75.4121C111.003 76.3887 109.587 77.1699 107.959 77.7559C106.331 78.3092 104.476 78.5859 102.393 78.5859C101.123 78.5859 99.9512 78.4232 98.877 78.0977C97.8027 77.8047 96.875 77.3815 96.0938 76.8281C95.3125 76.2747 94.7103 75.5911 94.2871 74.7773C93.8639 73.9635 93.6523 73.0358 93.6523 71.9941C93.6523 70.7897 93.929 69.748 94.4824 68.8691C95.0358 67.9902 95.6706 67.2741 96.3867 66.7207C97.1029 66.1348 97.8027 65.6953 98.4863 65.4023C99.2025 65.0768 99.707 64.849 100 64.7188C98.9909 64.556 98.0957 64.2793 97.3145 63.8887C96.6634 63.5306 96.0612 63.0423 95.5078 62.4238C94.9544 61.7728 94.6777 60.8939 94.6777 59.7871C94.6777 58.778 94.9219 57.8665 95.4102 57.0527C95.8984 56.2064 96.5495 55.5065 97.3633 54.9531C98.2096 54.3997 99.1699 53.9766 100.244 53.6836C101.351 53.3581 102.523 53.1953 103.76 53.1953C104.476 53.1953 105.192 53.2441 105.908 53.3418C106.657 53.4395 107.406 53.6185 108.154 53.8789ZM134.131 67.4043C134.066 67.6322 133.805 68.2507 133.35 69.2598C132.926 70.2363 132.324 71.2943 131.543 72.4336C130.794 73.5404 129.883 74.5495 128.809 75.4609C127.767 76.3398 126.579 76.7793 125.244 76.7793C123.519 76.7793 121.956 76.1283 120.557 74.8262C119.157 73.4915 117.952 71.6198 116.943 69.2109C115.967 66.7695 115.202 63.8236 114.648 60.373C114.128 56.9225 113.867 53.0651 113.867 48.8008C113.867 46.457 113.949 43.9993 114.111 41.4277C114.274 38.8236 114.535 36.2682 114.893 33.7617C115.251 31.2552 115.69 28.8626 116.211 26.584C116.764 24.3053 117.415 22.3034 118.164 20.5781C118.913 18.8529 119.775 17.4857 120.752 16.4766C121.761 15.4349 122.868 14.9141 124.072 14.9141C125.863 14.9141 127.165 16.0046 127.979 18.1855C128.825 20.3665 129.248 23.7357 129.248 28.293C129.248 30.9622 129.053 33.957 128.662 37.2773C128.271 40.5651 127.604 43.9342 126.66 47.3848C125.423 51.7467 124.121 55.474 122.754 58.5664C121.419 61.6263 120.28 64.0677 119.336 65.8906C119.694 67.1602 120.085 68.3158 120.508 69.3574C120.964 70.3991 121.468 71.3105 122.021 72.0918C122.575 72.8405 123.177 73.4264 123.828 73.8496C124.479 74.2728 125.195 74.4844 125.977 74.4844C126.953 74.4844 127.865 74.1914 128.711 73.6055C129.557 73.0195 130.306 72.3359 130.957 71.5547C131.641 70.7734 132.227 69.9759 132.715 69.1621C133.203 68.3483 133.577 67.6973 133.838 67.209L134.131 67.4043ZM116.846 45.3828C116.846 46.75 116.878 48.2311 116.943 49.8262C117.041 51.3887 117.171 52.9837 117.334 54.6113C117.497 56.2389 117.692 57.8665 117.92 59.4941C118.18 61.1217 118.49 62.6842 118.848 64.1816C119.531 62.7493 120.329 60.9102 121.24 58.6641C122.184 56.418 123.079 53.8952 123.926 51.0957C124.805 48.2637 125.537 45.2038 126.123 41.916C126.742 38.6283 127.051 35.2266 127.051 31.7109C127.051 29.4974 126.953 27.4792 126.758 25.6562C126.595 23.8008 126.335 22.222 125.977 20.9199C125.618 19.5853 125.163 18.5599 124.609 17.8438C124.089 17.0951 123.47 16.7207 122.754 16.7207C122.07 16.7207 121.452 17.209 120.898 18.1855C120.345 19.1296 119.84 20.3828 119.385 21.9453C118.962 23.5078 118.587 25.2982 118.262 27.3164C117.936 29.3346 117.66 31.4017 117.432 33.5176C117.236 35.6335 117.09 37.7331 116.992 39.8164C116.895 41.8672 116.846 43.7227 116.846 45.3828ZM134.57 57.6875C134.831 57.6875 135.075 57.7689 135.303 57.9316C135.563 58.0618 135.775 58.2083 135.938 58.3711C136.133 58.5339 136.279 58.7129 136.377 58.9082C136.507 59.071 136.572 59.1686 136.572 59.2012C136.572 59.2337 136.523 59.4128 136.426 59.7383C136.361 60.0312 136.263 60.5358 136.133 61.252C136.035 61.9681 135.938 62.9121 135.84 64.084C135.775 65.2233 135.742 66.6556 135.742 68.3809C135.742 70.6921 136.019 72.3034 136.572 73.2148C137.158 74.1263 137.858 74.582 138.672 74.582C139.486 74.582 140.283 74.3379 141.064 73.8496C141.878 73.3613 142.643 72.7266 143.359 71.9453C144.076 71.1641 144.743 70.2852 145.361 69.3086C146.012 68.2995 146.582 67.2904 147.07 66.2812L147.363 66.4766C147.233 66.8021 147.038 67.3066 146.777 67.9902C146.517 68.6413 146.191 69.3574 145.801 70.1387C145.41 70.9199 144.938 71.7337 144.385 72.5801C143.864 73.3939 143.245 74.1426 142.529 74.8262C141.846 75.4772 141.081 76.0306 140.234 76.4863C139.421 76.9095 138.525 77.1211 137.549 77.1211C136.865 77.1211 136.23 76.9909 135.645 76.7305C135.091 76.4701 134.587 75.998 134.131 75.3145C133.708 74.5983 133.366 73.6217 133.105 72.3848C132.878 71.1478 132.764 69.5527 132.764 67.5996C132.764 66.5905 132.796 65.5163 132.861 64.377C132.959 63.2051 133.073 62.1309 133.203 61.1543C133.366 60.1452 133.561 59.3151 133.789 58.6641C134.017 58.013 134.277 57.6875 134.57 57.6875ZM135.742 45.5781C136.556 45.5781 137.142 45.8711 137.5 46.457C137.858 47.0104 138.037 47.694 138.037 48.5078C138.037 49.4518 137.777 50.1842 137.256 50.7051C136.735 51.2259 136.1 51.4863 135.352 51.4863C134.798 51.4863 134.261 51.2747 133.74 50.8516C133.219 50.4284 132.959 49.7448 132.959 48.8008C132.959 47.7591 133.219 46.9616 133.74 46.4082C134.261 45.8548 134.928 45.5781 135.742 45.5781ZM158.936 53.8789C159.359 53.9766 159.57 54.2533 159.57 54.709C159.57 54.8392 159.521 55.0182 159.424 55.2461C159.359 55.4414 159.261 55.653 159.131 55.8809C159.033 56.0762 158.919 56.2552 158.789 56.418C158.659 56.5482 158.545 56.6133 158.447 56.6133C158.285 56.6133 158.089 56.5645 157.861 56.4668C157.633 56.3366 157.308 56.2064 156.885 56.0762C156.462 55.9134 155.908 55.7832 155.225 55.6855C154.541 55.5553 153.646 55.4902 152.539 55.4902C150.977 55.4902 149.674 55.7832 148.633 56.3691C147.591 56.9551 147.07 57.7689 147.07 58.8105C147.07 59.5592 147.38 60.194 147.998 60.7148C148.649 61.2031 149.398 61.5938 150.244 61.8867C151.123 62.1797 152.002 62.3913 152.881 62.5215C153.792 62.6517 154.492 62.7168 154.98 62.7168C155.339 62.7168 155.566 62.7819 155.664 62.9121C155.794 63.0098 155.859 63.1074 155.859 63.2051C155.859 63.4655 155.745 63.6283 155.518 63.6934C155.322 63.7259 155.062 63.791 154.736 63.8887C153.89 64.1816 153.027 64.556 152.148 65.0117C151.27 65.4349 150.456 65.9557 149.707 66.5742C148.991 67.1602 148.405 67.8275 147.949 68.5762C147.493 69.3249 147.266 70.1387 147.266 71.0176C147.266 72.4824 147.852 73.7031 149.023 74.6797C150.228 75.6237 151.904 76.0957 154.053 76.0957C156.494 76.0957 158.529 75.7376 160.156 75.0215C161.784 74.2728 163.118 73.4102 164.16 72.4336C165.234 71.457 166.064 70.4805 166.65 69.5039C167.236 68.4948 167.676 67.7298 167.969 67.209L168.262 67.4043C167.708 68.9993 166.992 70.4805 166.113 71.8477C165.267 73.2148 164.225 74.403 162.988 75.4121C161.784 76.3887 160.368 77.1699 158.74 77.7559C157.113 78.3092 155.257 78.5859 153.174 78.5859C151.904 78.5859 150.732 78.4232 149.658 78.0977C148.584 77.8047 147.656 77.3815 146.875 76.8281C146.094 76.2747 145.492 75.5911 145.068 74.7773C144.645 73.9635 144.434 73.0358 144.434 71.9941C144.434 70.7897 144.71 69.748 145.264 68.8691C145.817 67.9902 146.452 67.2741 147.168 66.7207C147.884 66.1348 148.584 65.6953 149.268 65.4023C149.984 65.0768 150.488 64.849 150.781 64.7188C149.772 64.556 148.877 64.2793 148.096 63.8887C147.445 63.5306 146.842 63.0423 146.289 62.4238C145.736 61.7728 145.459 60.8939 145.459 59.7871C145.459 58.778 145.703 57.8665 146.191 57.0527C146.68 56.2064 147.331 55.5065 148.145 54.9531C148.991 54.3997 149.951 53.9766 151.025 53.6836C152.132 53.3581 153.304 53.1953 154.541 53.1953C155.257 53.1953 155.973 53.2441 156.689 53.3418C157.438 53.4395 158.187 53.6185 158.936 53.8789ZM148.389 48.9961C148.258 49.1263 148.161 49.1914 148.096 49.1914C147.9 49.1914 147.721 49.0775 147.559 48.8496C147.428 48.5892 147.363 48.3288 147.363 48.0684C147.363 47.9056 147.559 47.5801 147.949 47.0918C148.34 46.6035 148.828 46.0501 149.414 45.4316C150.033 44.8132 150.684 44.1621 151.367 43.4785C152.083 42.7949 152.751 42.1764 153.369 41.623C153.988 41.0371 154.508 40.5651 154.932 40.207C155.387 39.849 155.664 39.6699 155.762 39.6699C155.827 39.6699 155.973 39.6699 156.201 39.6699C156.429 39.6699 156.657 39.7025 156.885 39.7676C157.145 39.8327 157.373 39.9466 157.568 40.1094C157.796 40.2721 157.926 40.5 157.959 40.793C158.415 41.8997 158.984 42.9902 159.668 44.0645C160.384 45.1061 161.296 46.0827 162.402 46.9941C162.5 47.0918 162.581 47.2057 162.646 47.3359C162.744 47.4661 162.793 47.5801 162.793 47.6777C162.793 48.0358 162.581 48.3451 162.158 48.6055C161.735 48.8659 161.182 48.9961 160.498 48.9961C159.977 48.5729 159.456 48.0195 158.936 47.3359C158.447 46.6198 157.975 45.9362 157.52 45.2852C157.096 44.6016 156.689 44.0156 156.299 43.5273C155.941 43.0391 155.632 42.7949 155.371 42.7949C155.111 42.7949 154.704 43.0065 154.15 43.4297C153.63 43.8529 153.027 44.3737 152.344 44.9922C151.693 45.6107 151.009 46.2943 150.293 47.043C149.609 47.7591 148.975 48.4102 148.389 48.9961ZM196.631 56.9062C196.533 55.9622 196.468 54.9857 196.436 53.9766C196.436 52.9674 196.436 51.9095 196.436 50.8027C196.436 48.459 196.484 46.0013 196.582 43.4297C196.712 40.8255 196.891 38.2702 197.119 35.7637C197.38 33.2572 197.689 30.8646 198.047 28.5859C198.405 26.3073 198.844 24.3053 199.365 22.5801C199.886 20.8548 200.472 19.4876 201.123 18.4785C201.774 17.4368 202.507 16.916 203.32 16.916C204.557 16.916 205.469 18.0065 206.055 20.1875C206.641 22.3685 206.934 25.7376 206.934 30.2949C206.934 32.9642 206.755 35.959 206.396 39.2793C206.071 42.5671 205.485 45.9362 204.639 49.3867C203.923 52.349 203.239 54.9531 202.588 57.1992C201.969 59.4128 201.383 61.3496 200.83 63.0098C201.123 64.5723 201.481 66.0534 201.904 67.4531C202.36 68.8529 202.865 70.0736 203.418 71.1152C203.971 72.1569 204.59 72.987 205.273 73.6055C205.957 74.1914 206.706 74.4844 207.52 74.4844C208.203 74.4844 208.887 74.2077 209.57 73.6543C210.254 73.1009 210.889 72.4499 211.475 71.7012C212.093 70.9525 212.63 70.1875 213.086 69.4062C213.574 68.625 213.949 67.9902 214.209 67.502L214.648 67.6973C214.648 67.6973 214.567 67.9251 214.404 68.3809C214.242 68.8366 213.997 69.4225 213.672 70.1387C213.346 70.8223 212.939 71.571 212.451 72.3848C211.995 73.1986 211.475 73.9635 210.889 74.6797C210.303 75.3633 209.652 75.9492 208.936 76.4375C208.219 76.8932 207.454 77.1211 206.641 77.1211C204.883 77.1211 203.337 76.3724 202.002 74.875C200.667 73.3776 199.544 71.2129 198.633 68.3809C198.177 69.4225 197.607 70.4479 196.924 71.457C196.24 72.4336 195.475 73.3125 194.629 74.0938C193.783 74.8424 192.839 75.4447 191.797 75.9004C190.788 76.3561 189.73 76.584 188.623 76.584C187.777 76.584 186.963 76.4375 186.182 76.1445C185.433 75.8516 184.782 75.4284 184.229 74.875C183.675 74.2891 183.236 73.6055 182.91 72.8242C182.585 72.043 182.422 71.1641 182.422 70.1875C182.422 68.5273 182.796 66.916 183.545 65.3535C184.294 63.7585 185.303 62.3424 186.572 61.1055C187.842 59.8359 189.29 58.8268 190.918 58.0781C192.578 57.2969 194.32 56.9062 196.143 56.9062H196.631ZM202.441 19.2109C202.083 19.2109 201.758 19.6829 201.465 20.627C201.204 21.5384 200.96 22.7591 200.732 24.2891C200.505 25.819 200.309 27.5768 200.146 29.5625C199.984 31.5482 199.837 33.5827 199.707 35.666C199.609 37.7493 199.528 39.8164 199.463 41.8672C199.43 43.8854 199.414 45.7246 199.414 47.3848C199.414 49.3053 199.495 51.4049 199.658 53.6836C199.821 55.9297 200.081 58.1758 200.439 60.4219C200.928 58.8594 201.432 57.1016 201.953 55.1484C202.474 53.1628 202.93 51.0469 203.32 48.8008C203.743 46.5221 204.085 44.1296 204.346 41.623C204.606 39.084 204.736 36.4473 204.736 33.7129C204.736 31.4668 204.688 29.4486 204.59 27.6582C204.492 25.8678 204.346 24.3542 204.15 23.1172C203.988 21.8477 203.76 20.8874 203.467 20.2363C203.174 19.5527 202.832 19.2109 202.441 19.2109ZM190.527 73.6055C191.536 73.6055 192.432 73.3939 193.213 72.9707C193.994 72.515 194.694 71.9616 195.312 71.3105C195.931 70.627 196.468 69.8783 196.924 69.0645C197.38 68.2507 197.786 67.4694 198.145 66.7207C197.819 65.5488 197.559 64.3444 197.363 63.1074C197.168 61.8379 196.989 60.5033 196.826 59.1035C196.338 58.9082 195.801 58.8105 195.215 58.8105C193.522 58.8105 192.057 59.0872 190.82 59.6406C189.616 60.1615 188.623 60.8451 187.842 61.6914C187.061 62.5378 186.475 63.4818 186.084 64.5234C185.726 65.5651 185.547 66.5905 185.547 67.5996C185.547 69.3249 186.003 70.7572 186.914 71.8965C187.858 73.0358 189.062 73.6055 190.527 73.6055ZM229.736 61.1055C229.443 61.1055 229.167 60.9427 228.906 60.6172C228.678 60.2591 228.369 59.8848 227.979 59.4941C227.588 59.1035 227.083 58.7454 226.465 58.4199C225.879 58.0618 225.098 57.8828 224.121 57.8828C222.754 57.8828 221.484 58.2409 220.312 58.957C219.141 59.6406 218.132 60.5195 217.285 61.5938C216.439 62.6354 215.771 63.791 215.283 65.0605C214.827 66.2975 214.6 67.4694 214.6 68.5762C214.6 70.3014 215.039 71.7174 215.918 72.8242C216.797 73.931 217.969 74.4844 219.434 74.4844C220.573 74.4844 221.566 74.2728 222.412 73.8496C223.291 73.3939 224.023 72.8079 224.609 72.0918C224.414 71.2129 224.316 70.1224 224.316 68.8203C224.316 67.4206 224.414 66.2812 224.609 65.4023C224.837 64.5234 225.098 63.8398 225.391 63.3516C225.716 62.8633 226.042 62.5378 226.367 62.375C226.693 62.1797 226.969 62.082 227.197 62.082C227.458 62.082 227.751 62.2611 228.076 62.6191C228.434 62.9772 228.613 63.612 228.613 64.5234C228.613 65.6628 228.402 66.8672 227.979 68.1367C227.588 69.3737 227.035 70.5618 226.318 71.7012C226.709 72.7103 227.311 73.4427 228.125 73.8984C228.939 74.3542 229.867 74.582 230.908 74.582C231.82 74.582 232.666 74.3867 233.447 73.9961C234.261 73.5729 235.01 73.0195 235.693 72.3359C236.41 71.6523 237.077 70.8711 237.695 69.9922C238.314 69.0807 238.883 68.153 239.404 67.209L239.697 67.4043C239.307 68.6413 238.786 69.8457 238.135 71.0176C237.484 72.1895 236.735 73.2311 235.889 74.1426C235.042 75.054 234.115 75.7865 233.105 76.3398C232.129 76.8607 231.104 77.1211 230.029 77.1211C229.215 77.1211 228.32 76.8607 227.344 76.3398C226.4 75.7865 225.618 74.8099 225 73.4102C223.991 74.6146 222.835 75.6237 221.533 76.4375C220.231 77.2188 218.831 77.6094 217.334 77.6094C216.488 77.6094 215.723 77.4141 215.039 77.0234C214.355 76.6328 213.77 76.112 213.281 75.4609C212.826 74.8099 212.467 74.0449 212.207 73.166C211.947 72.2871 211.816 71.3594 211.816 70.3828C211.816 68.7227 212.174 67.0625 212.891 65.4023C213.639 63.7422 214.616 62.2448 215.82 60.9102C217.057 59.5755 218.457 58.5013 220.02 57.6875C221.615 56.8411 223.275 56.418 225 56.418C226.27 56.418 227.327 56.5645 228.174 56.8574C229.053 57.1178 229.753 57.4434 230.273 57.834C230.794 58.1921 231.169 58.5664 231.396 58.957C231.624 59.3477 231.738 59.6569 231.738 59.8848C231.738 60.3405 231.494 60.666 231.006 60.8613C230.55 61.0241 230.127 61.1055 229.736 61.1055ZM225.635 67.5996C225.635 68.6738 225.732 69.6016 225.928 70.3828C226.416 69.4714 226.774 68.5436 227.002 67.5996C227.23 66.623 227.344 65.793 227.344 65.1094C227.344 64.2956 227.197 63.8887 226.904 63.8887C226.611 63.8887 226.318 64.2467 226.025 64.9629C225.765 65.679 225.635 66.5579 225.635 67.5996ZM313.623 76.1934C313.428 76.584 312.988 77.1862 312.305 78C311.621 78.7812 310.775 79.5625 309.766 80.3438C308.789 81.1576 307.65 81.8574 306.348 82.4434C305.078 83.0293 303.727 83.3223 302.295 83.3223C300.472 83.3223 298.73 82.8014 297.07 81.7598C295.443 80.7181 293.88 79.4323 292.383 77.9023C290.918 76.3724 289.518 74.7285 288.184 72.9707C286.882 71.2129 285.628 69.6178 284.424 68.1855C283.903 68.2832 283.382 68.3483 282.861 68.3809C282.34 68.3809 281.82 68.3809 281.299 68.3809C280.355 68.3809 279.492 68.332 278.711 68.2344C277.93 68.1042 277.262 67.8926 276.709 67.5996C276.546 69.4551 276.383 71.3105 276.221 73.166C276.09 75.0215 275.928 76.8932 275.732 78.7812C275.732 79.237 275.537 79.5625 275.146 79.7578C274.788 79.9857 274.382 80.0996 273.926 80.0996C273.568 80.0996 273.242 80.0345 272.949 79.9043C272.656 79.7741 272.51 79.6113 272.51 79.416C272.51 79.1882 272.673 78.944 272.998 78.6836C273.714 67.6159 274.268 56.4993 274.658 45.334C275.081 34.1686 275.472 22.8568 275.83 11.3984C272.933 12.3424 270.182 13.5306 267.578 14.9629C265.007 16.3626 262.744 17.9902 260.791 19.8457C258.87 21.6686 257.34 23.6706 256.201 25.8516C255.062 28.0326 254.492 30.3438 254.492 32.7852C254.492 33.599 254.574 34.3477 254.736 35.0312C254.932 35.7148 255.16 36.3333 255.42 36.8867C255.68 37.4076 255.941 37.8633 256.201 38.2539C256.494 38.612 256.738 38.8887 256.934 39.084L256.299 39.5234C256.136 39.3281 255.908 39.0352 255.615 38.6445C255.322 38.2214 255.029 37.7005 254.736 37.082C254.476 36.4635 254.232 35.7474 254.004 34.9336C253.809 34.1198 253.711 33.2083 253.711 32.1992C253.711 29.3346 254.313 26.6654 255.518 24.1914C256.755 21.6849 258.398 19.4225 260.449 17.4043C262.5 15.3861 264.86 13.612 267.529 12.082C270.231 10.5195 273.031 9.21745 275.928 8.17578C275.993 7.06901 276.042 5.96224 276.074 4.85547C276.107 3.7487 276.156 2.62565 276.221 1.48633C276.221 1.19336 276.432 0.981771 276.855 0.851562C277.279 0.688802 277.702 0.607422 278.125 0.607422C278.483 0.607422 278.792 0.65625 279.053 0.753906C279.346 0.851562 279.492 0.998047 279.492 1.19336C279.492 1.32357 279.427 1.45378 279.297 1.58398C279.232 2.52799 279.183 3.47201 279.15 4.41602C279.118 5.36003 279.069 6.28776 279.004 7.19922C283.171 6.0599 287.109 5.49023 290.82 5.49023C294.173 5.49023 297.347 5.94596 300.342 6.85742C303.369 7.76888 306.022 9.20117 308.301 11.1543C310.579 13.0749 312.386 15.5488 313.721 18.5762C315.055 21.571 315.723 25.1842 315.723 29.416C315.723 31.9876 315.381 34.6406 314.697 37.375C314.014 40.0768 313.053 42.7298 311.816 45.334C310.579 47.9382 309.098 50.4447 307.373 52.8535C305.648 55.2624 303.727 57.4596 301.611 59.4453C299.495 61.3984 297.233 63.1074 294.824 64.5723C292.415 66.0046 289.909 67.0462 287.305 67.6973C288.574 68.9668 289.811 70.3503 291.016 71.8477C292.253 73.3125 293.522 74.6797 294.824 75.9492C296.126 77.1862 297.51 78.2116 298.975 79.0254C300.472 79.8717 302.116 80.2949 303.906 80.2949C304.883 80.2949 305.859 80.1647 306.836 79.9043C307.845 79.6439 308.773 79.3021 309.619 78.8789C310.465 78.4883 311.214 78.0326 311.865 77.5117C312.549 76.9909 313.037 76.4863 313.33 75.998L313.623 76.1934ZM278.906 10.6172C278.613 19.276 278.369 27.9349 278.174 36.5938C278.011 45.2526 277.62 54.0905 277.002 63.1074C277.165 63.0423 277.344 62.9935 277.539 62.9609C277.734 62.9284 277.962 62.9121 278.223 62.9121C279.72 62.9121 281.104 63.2376 282.373 63.8887C283.643 64.5072 284.863 65.3372 286.035 66.3789C288.607 65.8906 291.032 65.0605 293.311 63.8887C295.622 62.7168 297.754 61.2845 299.707 59.5918C301.66 57.8665 303.418 55.946 304.98 53.8301C306.543 51.7142 307.878 49.4681 308.984 47.0918C310.091 44.7155 310.938 42.2741 311.523 39.7676C312.109 37.2285 312.402 34.7057 312.402 32.1992C312.402 28.9115 311.995 25.8678 311.182 23.0684C310.368 20.2363 309.066 17.7949 307.275 15.7441C305.485 13.6934 303.158 12.0983 300.293 10.959C297.428 9.78711 293.929 9.20117 289.795 9.20117C286.214 9.20117 282.585 9.67318 278.906 10.6172ZM281.299 66.8184C281.624 66.8184 281.934 66.8184 282.227 66.8184C282.52 66.8184 282.812 66.7858 283.105 66.7207C282.357 65.972 281.641 65.3535 280.957 64.8652C280.273 64.3444 279.622 64.084 279.004 64.084C278.418 64.084 277.946 64.1979 277.588 64.4258C277.262 64.6536 277.1 64.9466 277.1 65.3047C277.1 65.7604 277.507 66.1348 278.32 66.4277C279.167 66.6882 280.16 66.8184 281.299 66.8184ZM324.756 74.9238C325.537 74.9238 326.302 74.7611 327.051 74.4355C327.799 74.0775 328.467 73.5729 329.053 72.9219C329.639 72.2383 330.094 71.4082 330.42 70.4316C330.778 69.4551 330.957 68.3158 330.957 67.0137C330.957 65.9395 330.827 64.9303 330.566 63.9863C330.306 63.0098 329.915 62.1634 329.395 61.4473C328.906 60.7311 328.255 60.1615 327.441 59.7383C326.66 59.3151 325.732 59.1035 324.658 59.1035C323.91 59.1035 323.161 59.25 322.412 59.543C321.663 59.8034 320.996 60.2428 320.41 60.8613C319.824 61.4473 319.352 62.2122 318.994 63.1562C318.636 64.0677 318.457 65.1745 318.457 66.4766C318.457 67.5182 318.587 68.5436 318.848 69.5527C319.108 70.5293 319.482 71.4245 319.971 72.2383C320.492 73.0521 321.143 73.7031 321.924 74.1914C322.738 74.6797 323.682 74.9238 324.756 74.9238ZM323.047 77.4141C320.898 77.4141 319.141 76.7142 317.773 75.3145C316.406 73.8822 315.723 71.8151 315.723 69.1133C315.723 67.2904 316.064 65.6139 316.748 64.084C317.432 62.5215 318.311 61.1868 319.385 60.0801C320.492 58.9408 321.712 58.0618 323.047 57.4434C324.382 56.8249 325.684 56.5156 326.953 56.5156C329.004 56.5156 330.648 57.2155 331.885 58.6152C333.122 60.015 333.74 62.082 333.74 64.8164C333.74 66.6393 333.415 68.3158 332.764 69.8457C332.145 71.3757 331.315 72.7103 330.273 73.8496C329.264 74.9564 328.125 75.8353 326.855 76.4863C325.586 77.1048 324.316 77.4141 323.047 77.4141ZM336.621 72.0918C337.728 70.334 338.721 68.5436 339.6 66.7207C340.479 64.8652 341.211 63.0586 341.797 61.3008C341.016 60.194 340.348 59.071 339.795 57.9316C339.274 56.7598 339.014 55.5553 339.014 54.3184C339.014 53.1139 339.128 52.0234 339.355 51.0469C339.583 50.0703 339.893 49.2402 340.283 48.5566C340.674 47.873 341.113 47.3522 341.602 46.9941C342.09 46.6035 342.594 46.4082 343.115 46.4082C343.831 46.4082 344.401 46.7663 344.824 47.4824C345.28 48.1986 345.475 49.11 345.41 50.2168C345.345 51.5189 345.166 52.9186 344.873 54.416C344.613 55.9134 344.222 57.4434 343.701 59.0059C344.352 59.7546 345.02 60.5033 345.703 61.252C346.419 61.9681 347.054 62.7168 347.607 63.498C348.193 64.2793 348.665 65.1257 349.023 66.0371C349.414 66.916 349.609 67.8763 349.609 68.918C349.609 70.3503 349.333 71.6686 348.779 72.873C348.258 74.0775 347.624 75.1191 346.875 75.998C346.126 76.877 345.345 77.5605 344.531 78.0488C343.717 78.5371 343.018 78.7812 342.432 78.7812C341.423 78.7812 340.641 78.5208 340.088 78C339.567 77.4792 339.307 76.9095 339.307 76.291C339.307 75.8027 339.388 75.3145 339.551 74.8262C339.714 74.3379 339.893 73.8984 340.088 73.5078C340.316 73.0846 340.527 72.7428 340.723 72.4824C340.951 72.222 341.113 72.0918 341.211 72.0918C341.374 72.0918 341.471 72.1569 341.504 72.2871C341.569 72.3848 341.602 72.4824 341.602 72.5801C341.602 72.7428 341.585 72.9707 341.553 73.2637C341.52 73.5566 341.504 73.8008 341.504 73.9961C341.504 74.5495 341.683 75.0052 342.041 75.3633C342.432 75.7214 343.05 75.9004 343.896 75.9004C344.255 75.9004 344.661 75.819 345.117 75.6562C345.573 75.4935 346.012 75.2331 346.436 74.875C346.859 74.5169 347.201 74.0775 347.461 73.5566C347.754 73.0033 347.9 72.3522 347.9 71.6035C347.9 70.9199 347.738 70.2038 347.412 69.4551C347.087 68.7064 346.663 67.9414 346.143 67.1602C345.622 66.3789 345.036 65.5814 344.385 64.7676C343.766 63.9538 343.148 63.1237 342.529 62.2773C341.781 64.1328 340.951 65.9395 340.039 67.6973C339.16 69.4225 338.216 71.0176 337.207 72.4824L336.621 72.0918ZM340.332 51.7793C340.332 53.0163 340.56 54.123 341.016 55.0996C341.471 56.0436 342.074 56.9714 342.822 57.8828C343.083 56.8737 343.262 55.9134 343.359 55.002C343.457 54.0579 343.506 53.1628 343.506 52.3164C343.506 50.0378 343.001 48.8984 341.992 48.8984C341.699 48.8984 341.341 49.1263 340.918 49.582C340.527 50.0052 340.332 50.7376 340.332 51.7793ZM368.799 53.8789C369.222 53.9766 369.434 54.2533 369.434 54.709C369.434 54.8392 369.385 55.0182 369.287 55.2461C369.222 55.4414 369.124 55.653 368.994 55.8809C368.896 56.0762 368.783 56.2552 368.652 56.418C368.522 56.5482 368.408 56.6133 368.311 56.6133C368.148 56.6133 367.952 56.5645 367.725 56.4668C367.497 56.3366 367.171 56.2064 366.748 56.0762C366.325 55.9134 365.771 55.7832 365.088 55.6855C364.404 55.5553 363.509 55.4902 362.402 55.4902C360.84 55.4902 359.538 55.7832 358.496 56.3691C357.454 56.9551 356.934 57.7689 356.934 58.8105C356.934 59.5592 357.243 60.194 357.861 60.7148C358.512 61.2031 359.261 61.5938 360.107 61.8867C360.986 62.1797 361.865 62.3913 362.744 62.5215C363.656 62.6517 364.355 62.7168 364.844 62.7168C365.202 62.7168 365.43 62.7819 365.527 62.9121C365.658 63.0098 365.723 63.1074 365.723 63.2051C365.723 63.4655 365.609 63.6283 365.381 63.6934C365.186 63.7259 364.925 63.791 364.6 63.8887C363.753 64.1816 362.891 64.556 362.012 65.0117C361.133 65.4349 360.319 65.9557 359.57 66.5742C358.854 67.1602 358.268 67.8275 357.812 68.5762C357.357 69.3249 357.129 70.1387 357.129 71.0176C357.129 72.4824 357.715 73.7031 358.887 74.6797C360.091 75.6237 361.768 76.0957 363.916 76.0957C366.357 76.0957 368.392 75.7376 370.02 75.0215C371.647 74.2728 372.982 73.4102 374.023 72.4336C375.098 71.457 375.928 70.4805 376.514 69.5039C377.1 68.4948 377.539 67.7298 377.832 67.209L378.125 67.4043C377.572 68.9993 376.855 70.4805 375.977 71.8477C375.13 73.2148 374.089 74.403 372.852 75.4121C371.647 76.3887 370.231 77.1699 368.604 77.7559C366.976 78.3092 365.12 78.5859 363.037 78.5859C361.768 78.5859 360.596 78.4232 359.521 78.0977C358.447 77.8047 357.52 77.3815 356.738 76.8281C355.957 76.2747 355.355 75.5911 354.932 74.7773C354.508 73.9635 354.297 73.0358 354.297 71.9941C354.297 70.7897 354.574 69.748 355.127 68.8691C355.68 67.9902 356.315 67.2741 357.031 66.7207C357.747 66.1348 358.447 65.6953 359.131 65.4023C359.847 65.0768 360.352 64.849 360.645 64.7188C359.635 64.556 358.74 64.2793 357.959 63.8887C357.308 63.5306 356.706 63.0423 356.152 62.4238C355.599 61.7728 355.322 60.8939 355.322 59.7871C355.322 58.778 355.566 57.8665 356.055 57.0527C356.543 56.2064 357.194 55.5065 358.008 54.9531C358.854 54.3997 359.814 53.9766 360.889 53.6836C361.995 53.3581 363.167 53.1953 364.404 53.1953C365.12 53.1953 365.837 53.2441 366.553 53.3418C367.301 53.4395 368.05 53.6185 368.799 53.8789Z" fill="black"/>
</svg>
