<svg width="28" height="28" viewBox="0 0 33 29" fill="none" xmlns="http://www.w3.org/2000/svg">
<path d="M21.3125 16.9167H20.2262L19.8413 16.5904C21.1888 15.2129 22 13.4246 22 11.4792C22 7.14125 17.9987 3.625 13.0625 3.625C8.12625 3.625 4.125 7.14125 4.125 11.4792C4.125 15.8171 8.12625 19.3333 13.0625 19.3333C15.2762 19.3333 17.3112 18.6204 18.8787 17.4362L19.25 17.7746V18.7292L26.125 24.7587L28.1737 22.9583L21.3125 16.9167ZM13.0625 16.9167C9.63875 16.9167 6.875 14.4879 6.875 11.4792C6.875 8.47042 9.63875 6.04167 13.0625 6.04167C16.4862 6.04167 19.25 8.47042 19.25 11.4792C19.25 14.4879 16.4862 16.9167 13.0625 16.9167Z" fill="#9B9191"/>
</svg>
