<svg width="16" height="16" viewBox="0 0 16 16" fill="none" xmlns="http://www.w3.org/2000/svg">
<path d="M13.9396 3.08446C13.9396 3.6783 12.2489 5.18639 11.6955 5.62392C13.4285 6.18722 15.1233 7.72096 15.1233 8.9171C15.1233 10.6418 13.7325 10.9904 10.6881 11.0145V14.715H10.0287L9.9547 11.0145C9.43278 11.0104 8.9294 10.9968 8.45345 10.9685C6.14264 10.8312 5.56714 10.3472 5.56714 8.9171C5.56714 7.86465 7.05647 6.2172 8.45345 5.62392C7.71092 5.15687 6.53956 3.82021 6.53956 3.12045C6.46912 1.98971 7.17668 1.65437 8.87474 1.58605C9.41637 1.28738 9.35212 0.610795 9.2594 0H10.9445C10.9445 0 10.8344 1.15036 11.6955 1.58605C13.0924 1.68913 13.9396 2.02481 13.9396 3.08446Z" fill="#A178C5" fill-opacity="0.63"/>
<path d="M10.4203 3.35382C10.4203 3.99952 8.55813 5.63932 7.94867 6.11505C9.85738 6.72754 10.9151 8.39522 10.9151 9.69582C10.9151 11.5711 10.1922 11.9502 6.83909 11.9764V16H6.11282L6.03133 11.9764C5.45647 11.9719 4.90204 11.9572 4.37783 11.9264C1.83271 11.7771 1.18359 11.2508 1.18359 9.69582C1.18359 8.55146 2.8392 6.76013 4.37783 6.11505C3.56001 5.60721 2.26988 4.15383 2.26988 3.39296C2.19229 2.16347 2.9716 1.79884 4.84184 1.72456C5.43838 1.3998 5.36763 0.664136 5.2655 0H7.12153C7.12153 0 7.00018 1.25082 7.94867 1.72456C9.48717 1.83664 10.4203 2.20164 10.4203 3.35382Z" fill="#22162B"/>
</svg>
